<svg xmlns="http://www.w3.org/2000/svg" width="411" height="169" viewBox="0 0 411 169"><defs><style>.a{fill:rgba(223,225,226,0.48);}.b,.c{stroke:none;}.c{fill:rgba(112,112,112,0.1);}</style></defs><g class="a"><path class="b" d="M57,0H354a57,57,0,0,1,57,57v55a57,57,0,0,1-57,57H57A57,57,0,0,1,0,112V57A57,57,0,0,1,57,0Z"/><path class="c" d="M 57 1 C 49.43963623046875 1 42.10589599609375 2.48046875 35.20257568359375 5.400375366210938 C 31.88458251953125 6.803741455078125 28.68426513671875 8.540847778320313 25.69058227539063 10.56330871582031 C 22.72506713867188 12.56678771972656 19.93637084960938 14.86769104003906 17.40203857421875 17.40205383300781 C 14.86767578125 19.93637084960938 12.56680297851563 22.72505187988281 10.56332397460938 25.69058227539063 C 8.54083251953125 28.68426513671875 6.803741455078125 31.88458251953125 5.400360107421875 35.20257568359375 C 2.48046875 42.10589599609375 1 49.43962860107422 1 57 L 1 112 C 1 119.5603637695313 2.48046875 126.8941040039063 5.400360107421875 133.7974243164063 C 6.803741455078125 137.1154174804688 8.54083251953125 140.3157348632813 10.56332397460938 143.3094177246094 C 12.56680297851563 146.2749481201172 14.86767578125 149.0636291503906 17.40203857421875 151.5979461669922 C 19.93637084960938 154.1323089599609 22.72506713867188 156.4332122802734 25.69058227539063 158.4366912841797 C 28.68426513671875 160.4591522216797 31.88458251953125 162.1962585449219 35.20257568359375 163.5996246337891 C 42.10589599609375 166.51953125 49.43963623046875 168 57 168 L 354 168 C 361.5603637695313 168 368.8941040039063 166.51953125 375.7974243164063 163.5996246337891 C 379.1154174804688 162.1962585449219 382.3157348632813 160.4591522216797 385.3094177246094 158.4366912841797 C 388.2749633789063 156.4332122802734 391.0636291503906 154.1323089599609 393.5979614257813 151.5979461669922 C 396.13232421875 149.0636291503906 398.4331970214844 146.2749481201172 400.4366760253906 143.3094177246094 C 402.4591674804688 140.3157348632813 404.1962585449219 137.1154174804688 405.5996398925781 133.7974243164063 C 408.51953125 126.8941040039063 410 119.5603637695313 410 112 L 410 57 C 410 49.43962860107422 408.51953125 42.10589599609375 405.5996398925781 35.20257568359375 C 404.1962585449219 31.88458251953125 402.4591674804688 28.68426513671875 400.4366760253906 25.69058227539063 C 398.4331970214844 22.72505187988281 396.13232421875 19.93637084960938 393.5979614257813 17.40205383300781 C 391.0636291503906 14.86769104003906 388.2749633789063 12.56678771972656 385.3094177246094 10.56330871582031 C 382.3157348632813 8.540847778320313 379.1154174804688 6.803741455078125 375.7974243164063 5.400375366210938 C 368.8941040039063 2.48046875 361.5603637695313 1 354 1 L 57 1 M 57 0 L 354 0 C 385.480224609375 0 411 25.51979064941406 411 57 L 411 112 C 411 143.4802093505859 385.480224609375 169 354 169 L 57 169 C 25.519775390625 169 0 143.4802093505859 0 112 L 0 57 C 0 25.51979064941406 25.519775390625 0 57 0 Z"/></g></svg>